# Blender v3.1.2 OBJ File: ''
# www.blender.org
mtllib Bio.mtl
o Plane.001
v 0.464152 9.162202 4.574023
v 4.505116 9.113259 1.175041
v -2.500705 9.116243 -3.043783
v -0.092744 9.074971 -4.685098
v -3.222383 9.116543 0.132873
v 2.450617 9.137731 2.900044
v 2.294916 9.094322 -1.627711
v -1.964805 9.098637 -3.163743
v 0.753291 9.117357 -0.406458
v -4.219396 9.116393 -1.071345
v -3.903731 9.116467 -0.316159
v -4.220401 9.116318 -1.818026
v -3.584317 9.116506 -0.049122
v -4.266672 9.116356 -1.457442
v -4.078572 9.116430 -0.642726
v -4.080583 9.116281 -2.127585
v -3.338835 9.116261 -2.864908
v -3.760735 9.116271 -2.560029
v -2.881501 9.116252 -3.025214
v -3.954676 9.116276 -2.369320
v -3.119381 9.116257 -2.962070
v -3.515767 9.116266 -2.776250
v -2.714490 9.116248 -3.044420
v -3.088522 9.115474 -0.035408
v 0.490668 9.159516 4.276427
v 2.315122 9.136618 2.738978
v 4.213459 9.114486 1.145089
v 2.129335 9.096503 -1.497784
v -0.126537 9.078389 -4.386420
v -1.870485 9.099491 -2.969171
v -2.477737 9.116803 -2.833232
v -3.468002 9.115752 -0.226225
v -4.054543 9.115916 -1.456828
v -4.012985 9.115831 -1.117424
v -3.884341 9.115787 -0.725877
v -3.737428 9.115731 -0.451473
v -3.891184 9.116153 -2.035577
v -4.015634 9.116060 -1.760045
v -3.783371 9.116286 -2.242574
v -3.049342 9.116687 -2.762891
v -3.249032 9.116625 -2.674479
v -3.397003 9.116528 -2.600334
v -3.617199 9.116418 -2.405976
v -2.702740 9.116831 -2.833903
v -2.842271 9.116770 -2.817857
v -3.088231 9.218135 -0.035883
v 0.490959 9.262177 4.275951
v 2.315413 9.239279 2.738503
v 4.213750 9.217147 1.144613
v 2.129626 9.199164 -1.498260
v -0.126246 9.181050 -4.386895
v -1.870194 9.202152 -2.969646
v -2.477446 9.219464 -2.833708
v -3.467710 9.218413 -0.226701
v 0.753582 9.220018 -0.406933
v -4.054253 9.218577 -1.457304
v -4.012694 9.218493 -1.117900
v -3.884051 9.218448 -0.726353
v -3.737138 9.218392 -0.451948
v -3.890893 9.218814 -2.036053
v -4.015343 9.218721 -1.760521
v -3.783080 9.218947 -2.243050
v -3.049051 9.219348 -2.763366
v -3.248741 9.219286 -2.674955
v -3.396712 9.219189 -2.600809
v -3.616908 9.219079 -2.406451
v -2.702449 9.219492 -2.834379
v -2.841980 9.219431 -2.818333
v -3.222092 9.219204 0.132397
v 0.464443 9.264863 4.573547
v 2.450908 9.240392 2.899569
v 4.505407 9.215920 1.174566
v 2.295207 9.196983 -1.628186
v -0.092453 9.177632 -4.685574
v -1.964514 9.201298 -3.164219
v -2.500414 9.218904 -3.044258
v -3.584027 9.219167 -0.049597
v -4.266381 9.219017 -1.457917
v -4.219105 9.219054 -1.071820
v -4.078281 9.219091 -0.643201
v -3.903440 9.219129 -0.316634
v -4.080292 9.218942 -2.128060
v -4.220110 9.218979 -1.818502
v -3.954385 9.218937 -2.369795
v -3.119090 9.218918 -2.962545
v -3.338544 9.218923 -2.865383
v -3.515476 9.218927 -2.776726
v -3.760443 9.218932 -2.560504
v -2.714199 9.218909 -3.044896
v -2.881210 9.218913 -3.025690
v -3.082681 11.216913 -0.043889
v 0.496509 11.260956 4.267946
v 2.320963 11.238057 2.730497
v 4.219300 11.215925 1.136608
v 2.135175 11.197943 -1.506265
v -0.120696 11.179829 -4.394901
v -1.864645 11.200931 -2.977652
v -2.471896 11.218243 -2.841713
v -3.462161 11.217192 -0.234706
v -4.048703 11.217356 -1.465309
v -4.007144 11.217271 -1.125905
v -3.878501 11.217226 -0.734358
v -3.731588 11.217171 -0.459954
v -3.885343 11.217592 -2.044059
v -4.009793 11.217500 -1.768526
v -3.777530 11.217726 -2.251055
v -3.043501 11.218126 -2.771372
v -3.243191 11.218064 -2.682960
v -3.391162 11.217967 -2.608815
v -3.611358 11.217857 -2.414457
v -2.696899 11.218271 -2.842384
v -2.836430 11.218209 -2.826338
v -3.216542 11.217982 0.124392
v 0.469993 11.263641 4.565542
v 2.456458 11.239170 2.891563
v 4.510957 11.214699 1.166560
v 2.300757 11.195762 -1.636192
v -0.086903 11.176411 -4.693579
v -1.958965 11.200076 -3.172224
v -2.494864 11.217682 -3.052264
v -3.578477 11.217945 -0.057603
v -4.260831 11.217794 -1.465923
v -4.213555 11.217833 -1.079826
v -4.072731 11.217870 -0.651207
v -3.897890 11.217907 -0.324640
v -4.074742 11.217720 -2.136066
v -4.214560 11.217757 -1.826507
v -3.948835 11.217715 -2.377801
v -3.113540 11.217696 -2.970551
v -3.332994 11.217701 -2.873389
v -3.509927 11.217706 -2.784731
v -3.754894 11.217710 -2.568510
v -2.708649 11.217688 -3.052901
v -2.875660 11.217691 -3.033695
vt 0.500000 0.500000
vt 0.484805 0.972668
vt 0.955103 0.972823
vt 0.946476 0.500136
vt 0.029787 0.527925
vt 0.018365 0.584336
vt 0.015721 0.637744
vt 0.016304 0.688776
vt 0.016048 0.751200
vt 0.015642 0.806408
vt 0.015805 0.858038
vt 0.017705 0.900552
vt 0.017485 0.919395
vt 0.020197 0.927132
vt 0.021767 0.938279
vt 0.025165 0.942892
vt 0.029482 0.950465
vt 0.038549 0.956949
vt 0.051943 0.960346
vt 0.114906 0.960979
vt 0.038730 0.020373
vt 0.491615 0.027980
vt 0.958720 0.029378
vt 0.000000 0.000000
vt 0.000000 0.500000
vt 1.000000 0.000000
vt 0.500000 0.000000
vt 1.000000 1.000000
vt 1.000000 0.500000
vt 0.000000 1.000000
vt 0.500000 1.000000
vt 0.000000 0.562500
vt 0.000000 0.750000
vt 0.000000 0.812500
vt 0.000000 0.625000
vt 0.000000 0.687500
vt 0.000000 0.875000
vt 0.000000 0.937500
vt 0.000000 0.945312
vt 0.000000 0.968750
vt 0.000000 0.976562
vt 0.000000 0.953125
vt 0.000000 0.960938
vt 0.000000 0.984375
vt 0.000000 0.992188
vt 0.500000 0.500000
vt 0.946476 0.500136
vt 0.955103 0.972823
vt 0.484805 0.972668
vt 0.029787 0.527925
vt 0.114906 0.960979
vt 0.051943 0.960346
vt 0.038549 0.956949
vt 0.029482 0.950465
vt 0.025165 0.942892
vt 0.021767 0.938279
vt 0.020197 0.927132
vt 0.017485 0.919395
vt 0.017705 0.900552
vt 0.015805 0.858038
vt 0.015642 0.806408
vt 0.016048 0.751200
vt 0.016304 0.688776
vt 0.015721 0.637744
vt 0.018365 0.584336
vt 0.038730 0.020373
vt 0.491615 0.027980
vt 0.958720 0.029378
vt 0.000000 1.000000
vt 0.000000 0.992188
vt 0.000000 0.992188
vt 0.000000 1.000000
vt 0.021767 0.938279
vt 0.020197 0.927132
vt 1.000000 1.000000
vt 0.500000 1.000000
vt 0.500000 1.000000
vt 1.000000 1.000000
vt 0.958720 0.029378
vt 0.946476 0.500136
vt 0.000000 0.968750
vt 0.000000 0.960938
vt 0.000000 0.960938
vt 0.000000 0.968750
vt 0.029482 0.950465
vt 0.025165 0.942892
vt 1.000000 0.000000
vt 1.000000 0.500000
vt 1.000000 0.500000
vt 1.000000 0.000000
vt 0.038730 0.020373
vt 0.491615 0.027980
vt 0.000000 0.984375
vt 0.000000 0.976562
vt 0.000000 0.976562
vt 0.000000 0.984375
vt 0.017485 0.919395
vt 0.017705 0.900552
vt 0.000000 0.000000
vt 0.500000 0.000000
vt 0.500000 0.000000
vt 0.000000 0.000000
vt 0.018365 0.584336
vt 0.029787 0.527925
vt 0.000000 0.953125
vt 0.000000 0.945312
vt 0.000000 0.945312
vt 0.000000 0.953125
vt 0.016048 0.751200
vt 0.016304 0.688776
vt 0.000000 0.562500
vt 0.000000 0.500000
vt 0.000000 0.500000
vt 0.000000 0.562500
vt 0.484805 0.972668
vt 0.114906 0.960979
vt 0.015805 0.858038
vt 0.015642 0.806408
vt 0.955103 0.972823
vt 0.015721 0.637744
vt 0.000000 0.625000
vt 0.000000 0.812500
vt 0.000000 0.875000
vt 0.000000 0.687500
vt 0.000000 0.750000
vt 0.000000 0.937500
vt 0.000000 0.812500
vt 0.000000 0.750000
vt 0.000000 0.687500
vt 0.000000 0.625000
vt 0.000000 0.937500
vt 0.000000 0.875000
vt 0.038549 0.956949
vt 0.051943 0.960346
vn -0.0047 -0.9999 0.0108
vn -0.0020 -1.0000 0.0028
vn -0.0007 -1.0000 0.0090
vn -0.0052 -0.9999 0.0097
vn 0.0019 -1.0000 0.0087
vn -0.0043 -1.0000 0.0090
vn -0.0054 -0.9999 0.0105
vn -0.0279 -0.9995 0.0116
vn -0.0022 -1.0000 0.0037
vn -0.0045 -0.9999 0.0094
vn -0.0051 -0.9999 0.0108
vn -0.0049 -0.9999 0.0093
vn -0.0024 -1.0000 0.0002
vn -0.0029 -1.0000 0.0015
vn -0.0008 -1.0000 -0.0005
vn -0.0022 -1.0000 0.0028
vn -0.0016 -1.0000 -0.0004
vn -0.0027 -1.0000 0.0009
vn -0.0001 -1.0000 -0.0003
vn 0.0009 -1.0000 0.0017
vn 0.0008 -1.0000 0.0006
vn 0.0005 -1.0000 0.0026
vn 0.0004 -1.0000 0.0001
vn 0.0007 -1.0000 0.0021
vn 0.0009 -1.0000 0.0012
vn -0.0001 -1.0000 0.0027
vn 0.0047 0.9999 -0.0108
vn 0.0020 1.0000 -0.0028
vn 0.0007 1.0000 -0.0090
vn 0.0052 0.9999 -0.0097
vn 0.0030 -0.0040 -1.0000
vn 0.6617 0.0012 0.7497
vn -0.6307 -0.0014 -0.7760
vn -0.7852 0.0047 0.6192
vn -0.4480 -0.0023 -0.8940
vn 0.4048 0.0025 0.9144
vn 0.7852 -0.0047 -0.6192
vn -0.6444 -0.0013 -0.7647
vn -0.2566 -0.0032 -0.9665
vn 0.8869 -0.0006 0.4619
vn 0.6444 0.0013 0.7647
vn 0.4492 -0.0048 -0.8934
vn -0.7011 -0.0009 -0.7130
vn 0.9500 -0.0039 -0.3121
vn -0.4492 0.0048 0.8934
vn 0.2185 0.0033 0.9758
vn -0.1142 -0.0037 -0.9934
vn 0.9919 -0.0022 0.1273
vn -0.2185 -0.0033 -0.9758
vn -0.7881 0.0047 0.6155
vn -0.6617 -0.0012 -0.7497
vn 0.6414 -0.0049 -0.7672
vn -0.6414 0.0054 0.7672
vn -0.4492 0.0054 0.8934
vn -0.2566 -0.0037 -0.9665
vn -0.9919 0.0022 -0.1273
vn 0.6444 0.0017 0.7647
vn -0.4480 -0.0029 -0.8940
vn -0.9500 0.0041 0.3121
vn 0.7852 -0.0051 -0.6192
vn 0.0030 -0.0046 -1.0000
vn -0.8869 0.0004 -0.4619
vn -0.6307 -0.0018 -0.7760
vn -0.7695 0.0051 0.6387
vn -0.4048 -0.0031 -0.9144
vn -0.9926 0.0034 0.1215
vn 0.6430 0.0017 0.7658
vn -0.6617 -0.0016 -0.7497
vn -0.8816 0.0047 0.4720
vn 0.7881 -0.0051 -0.6155
vn -0.1142 -0.0043 -0.9934
vn -0.9114 0.0007 -0.4116
vn -0.2186 -0.0039 -0.9758
vn -0.7011 -0.0013 -0.7130
vn -0.0019 1.0000 -0.0087
vn 0.0043 1.0000 -0.0090
vn 0.0054 0.9999 -0.0105
vn 0.0279 0.9995 -0.0116
vn 0.0022 1.0000 -0.0037
vn 0.0045 0.9999 -0.0094
vn 0.0051 0.9999 -0.0108
vn 0.0049 0.9999 -0.0093
vn 0.0024 1.0000 -0.0002
vn 0.0029 1.0000 -0.0015
vn 0.0008 1.0000 0.0005
vn 0.0022 1.0000 -0.0028
vn 0.0016 1.0000 0.0004
vn 0.0027 1.0000 -0.0009
vn 0.0001 1.0000 0.0003
vn -0.0009 1.0000 -0.0017
vn -0.0008 1.0000 -0.0006
vn -0.0005 1.0000 -0.0026
vn -0.0004 1.0000 -0.0001
vn -0.0007 1.0000 -0.0021
vn -0.0009 1.0000 -0.0012
vn 0.0001 1.0000 -0.0027
vn 0.6307 0.0014 0.7760
vn -0.9926 0.0032 0.1215
vn 0.1142 0.0037 0.9934
vn -0.8816 0.0043 0.4720
vn 0.7011 0.0009 0.7130
vn -0.9114 0.0009 -0.4116
vn 0.2566 0.0032 0.9665
vn -0.6414 0.0049 0.7672
vn 0.4480 0.0023 0.8940
vn -0.0030 0.0040 1.0000
vn 0.9926 -0.0032 -0.1215
vn -0.9500 0.0039 0.3121
vn -0.7695 0.0047 0.6387
vn 0.8816 -0.0043 -0.4720
vn -0.8869 0.0006 -0.4619
vn 0.7695 -0.0047 -0.6387
vn 0.6430 0.0013 0.7658
vn 0.9114 -0.0009 0.4116
vn -0.4048 -0.0025 -0.9144
vn -0.6430 -0.0013 -0.7658
vn 0.7881 -0.0047 -0.6155
usemtl Material.001
s off
f 9/1/1 30/2/1 29/3/1 28/4/1
f 24/5/2 32/6/2 36/7/2 35/8/2 34/9/2 33/10/2 38/11/2 37/12/2 39/13/2 43/14/2 42/15/2 41/16/2 40/17/2 45/18/2 44/19/2 31/20/2 30/2/2 9/1/2
f 25/21/3 24/5/3 9/1/3 26/22/3
f 26/22/4 9/1/4 28/4/4 27/23/4
f 25/21/5 1/24/5 5/25/5 24/5/5
f 27/23/6 2/26/6 6/27/6 26/22/6
f 29/3/7 4/28/7 7/29/7 28/4/7
f 31/20/8 3/30/8 8/31/8 30/2/8
f 24/5/9 5/25/9 13/32/9 32/6/9
f 26/22/10 6/27/10 1/24/10 25/21/10
f 28/4/11 7/29/11 2/26/11 27/23/11
f 30/2/12 8/31/12 4/28/12 29/3/12
f 34/9/13 10/33/13 14/34/13 33/10/13
f 36/7/14 11/35/14 15/36/14 35/8/14
f 38/11/15 12/37/15 16/38/15 37/12/15
f 32/6/16 13/32/16 11/35/16 36/7/16
f 33/10/17 14/34/17 12/37/17 38/11/17
f 35/8/18 15/36/18 10/33/18 34/9/18
f 37/12/19 16/38/19 20/39/19 39/13/19
f 41/16/20 17/40/20 21/41/20 40/17/20
f 43/14/21 18/42/21 22/43/21 42/15/21
f 45/18/22 19/44/22 23/45/22 44/19/22
f 39/13/23 20/39/23 18/42/23 43/14/23
f 40/17/24 21/41/24 19/44/24 45/18/24
f 42/15/25 22/43/25 17/40/25 41/16/25
f 44/19/26 23/45/26 3/30/26 31/20/26
f 55/46/27 50/47/27 51/48/27 52/49/27
f 46/50/28 55/46/28 52/49/28 53/51/28 67/52/28 68/53/28 63/54/28 64/55/28 65/56/28 66/57/28 62/58/28 60/59/28 61/60/28 56/61/28 57/62/28 58/63/28 59/64/28 54/65/28
f 47/66/29 48/67/29 55/46/29 46/50/29
f 48/67/30 49/68/30 50/47/30 55/46/30
f 76/69/31 89/70/31 133/71/31 120/72/31
f 66/57/32 65/56/32 109/73/32 110/74/32
f 74/75/33 75/76/33 119/77/33 118/78/33
f 50/47/34 49/68/34 94/79/34 95/80/34
f 86/81/35 87/82/35 131/83/35 130/84/35
f 64/55/36 63/54/36 107/85/36 108/86/36
f 72/87/37 73/88/37 117/89/37 116/90/37
f 48/67/38 47/66/38 92/91/38 93/92/38
f 90/93/39 85/94/39 129/95/39 134/96/39
f 60/59/40 62/58/40 106/97/40 104/98/40
f 70/99/41 71/100/41 115/101/41 114/102/41
f 46/50/42 54/65/42 99/103/42 91/104/42
f 88/105/43 84/106/43 128/107/43 132/108/43
f 58/63/44 57/62/44 101/109/44 102/110/44
f 77/111/45 69/112/45 113/113/45 121/114/45
f 53/51/46 52/49/46 97/115/46 98/116/46
f 89/70/47 90/93/47 134/96/47 133/71/47
f 56/61/48 61/60/48 105/117/48 100/118/48
f 75/76/49 76/69/49 120/72/49 119/77/49
f 51/48/50 50/47/50 95/80/50 96/119/50
f 87/82/51 88/105/51 132/108/51 131/83/51
f 54/65/52 59/64/52 103/120/52 99/103/52
f 11/35/53 13/32/53 77/111/53 81/121/53
f 13/32/54 5/25/54 69/112/54 77/111/54
f 19/44/55 21/41/55 85/94/55 90/93/55
f 12/37/56 14/34/56 78/122/56 83/123/56
f 1/24/57 6/27/57 71/100/57 70/99/57
f 17/40/58 22/43/58 87/82/58 86/81/58
f 10/33/59 15/36/59 80/124/59 79/125/59
f 2/26/60 7/29/60 73/88/60 72/87/60
f 3/30/61 23/45/61 89/70/61 76/69/61
f 20/39/62 16/38/62 82/126/62 84/106/62
f 4/28/63 8/31/63 75/76/63 74/75/63
f 5/25/64 1/24/64 70/99/64 69/112/64
f 21/41/65 17/40/65 86/81/65 85/94/65
f 14/34/66 10/33/66 79/125/66 78/122/66
f 6/27/67 2/26/67 72/87/67 71/100/67
f 22/43/68 18/42/68 88/105/68 87/82/68
f 15/36/69 11/35/69 81/121/69 80/124/69
f 7/29/70 4/28/70 74/75/70 73/88/70
f 23/45/71 19/44/71 90/93/71 89/70/71
f 16/38/72 12/37/72 83/123/72 82/126/72
f 8/31/73 3/30/73 76/69/73 75/76/73
f 18/42/74 20/39/74 84/106/74 88/105/74
f 92/91/75 91/104/75 113/113/75 114/102/75
f 94/79/76 93/92/76 115/101/76 116/90/76
f 96/119/77 95/80/77 117/89/77 118/78/77
f 98/116/78 97/115/78 119/77/78 120/72/78
f 91/104/79 99/103/79 121/114/79 113/113/79
f 93/92/80 92/91/80 114/102/80 115/101/80
f 95/80/81 94/79/81 116/90/81 117/89/81
f 97/115/82 96/119/82 118/78/82 119/77/82
f 101/109/83 100/118/83 122/127/83 123/128/83
f 103/120/84 102/110/84 124/129/84 125/130/84
f 105/117/85 104/98/85 126/131/85 127/132/85
f 99/103/86 103/120/86 125/130/86 121/114/86
f 100/118/87 105/117/87 127/132/87 122/127/87
f 102/110/88 101/109/88 123/128/88 124/129/88
f 104/98/89 106/97/89 128/107/89 126/131/89
f 108/86/90 107/85/90 129/95/90 130/84/90
f 110/74/91 109/73/91 131/83/91 132/108/91
f 112/133/92 111/134/92 133/71/92 134/96/92
f 106/97/93 110/74/93 132/108/93 128/107/93
f 107/85/94 112/133/94 134/96/94 129/95/94
f 109/73/95 108/86/95 130/84/95 131/83/95
f 111/134/96 98/116/96 120/72/96 133/71/96
f 52/49/97 51/48/97 96/119/97 97/115/97
f 78/122/98 79/125/98 123/128/98 122/127/98
f 68/53/99 67/52/99 111/134/99 112/133/99
f 80/124/100 81/121/100 125/130/100 124/129/100
f 62/58/101 66/57/101 110/74/101 106/97/101
f 82/126/102 83/123/102 127/132/102 126/131/102
f 63/54/103 68/53/103 112/133/103 107/85/103
f 81/121/104 77/111/104 121/114/104 125/130/104
f 65/56/105 64/55/105 108/86/105 109/73/105
f 83/123/56 78/122/56 122/127/56 127/132/56
f 67/52/106 53/51/106 98/116/106 111/134/106
f 57/62/107 56/61/107 100/118/107 101/109/107
f 79/125/108 80/124/108 124/129/108 123/128/108
f 69/112/109 70/99/109 114/102/109 113/113/109
f 59/64/110 58/63/110 102/110/110 103/120/110
f 84/106/111 82/126/111 126/131/111 128/107/111
f 47/66/112 46/50/112 91/104/112 92/91/112
f 71/100/113 72/87/113 116/90/113 115/101/113
f 61/60/114 60/59/114 104/98/114 105/117/114
f 85/94/115 86/81/115 130/84/115 129/95/115
f 49/68/116 48/67/116 93/92/116 94/79/116
f 73/88/117 74/75/117 118/78/117 117/89/117
